<svg width="38" height="17" viewBox="0 0 38 17" fill="none" xmlns="http://www.w3.org/2000/svg">
<mask id="path-1-inside-1_1_2536" fill="white">
<path d="M18.9301 0.422302H10.4793L5.40884 4.64769H3.71869C1.84262 4.64769 0.338379 6.15193 0.338379 8.028V13.0985H4.00602C4.73278 15.1266 6.64266 16.4788 8.78915 16.4788C10.9356 16.4788 12.8455 15.1266 13.5554 13.0985H24.2879C25.0146 15.1266 26.9245 16.4788 29.071 16.4788C31.2175 16.4788 33.1274 15.1266 33.8372 13.0985H37.5218V11.4083C37.5218 9.53224 35.7809 8.92378 34.1415 8.028L18.9301 0.422302ZM7.52154 6.33784L11.3244 2.95753H18.085L24.8456 6.33784H7.52154ZM8.78915 8.87308C9.46154 8.87308 10.1064 9.14018 10.5818 9.61563C11.0573 10.0911 11.3244 10.7359 11.3244 11.4083C11.3244 12.0807 11.0573 12.7255 10.5818 13.201C10.1064 13.6764 9.46154 13.9435 8.78915 13.9435C8.11677 13.9435 7.47192 13.6764 6.99647 13.201C6.52102 12.7255 6.25392 12.0807 6.25392 11.4083C6.25392 10.7359 6.52102 10.0911 6.99647 9.61563C7.47192 9.14018 8.11677 8.87308 8.78915 8.87308ZM29.071 8.87308C29.7434 8.87308 30.3882 9.14018 30.8637 9.61563C31.3391 10.0911 31.6062 10.7359 31.6062 11.4083C31.6062 12.0807 31.3391 12.7255 30.8637 13.201C30.3882 13.6764 29.7434 13.9435 29.071 13.9435C28.3986 13.9435 27.7538 13.6764 27.2783 13.201C26.8029 12.7255 26.5358 12.0807 26.5358 11.4083C26.5358 10.7359 26.8029 10.0911 27.2783 9.61563C27.7538 9.14018 28.3986 8.87308 29.071 8.87308Z"/>
</mask>
<path d="M18.9301 0.422302L20.0639 -1.84528L19.5286 -2.11293H18.9301V0.422302ZM10.4793 0.422302V-2.11293H9.56143L8.85629 -1.52532L10.4793 0.422302ZM5.40884 4.64769V7.18292H6.32672L7.03186 6.59531L5.40884 4.64769ZM0.338379 13.0985H-2.19685V15.6337H0.338379V13.0985ZM4.00602 13.0985L6.39265 12.2433L5.79064 10.5632H4.00602V13.0985ZM13.5554 13.0985V10.5632H11.7567L11.1625 12.2609L13.5554 13.0985ZM24.2879 13.0985L26.6745 12.2433L26.0725 10.5632H24.2879V13.0985ZM33.8372 13.0985V10.5632H32.0385L31.4443 12.2609L33.8372 13.0985ZM37.5218 13.0985V15.6337H40.057V13.0985H37.5218ZM34.1415 8.028L35.3571 5.80321L35.3166 5.78107L35.2753 5.76042L34.1415 8.028ZM7.52154 6.33784L5.83722 4.44299L0.853371 8.87308H7.52154V6.33784ZM11.3244 2.95753V0.422302H10.3605L9.64007 1.06268L11.3244 2.95753ZM18.085 2.95753L19.2188 0.689954L18.6835 0.422302H18.085V2.95753ZM24.8456 6.33784V8.87308L25.9794 4.07026L24.8456 6.33784ZM29.071 8.87308V6.33784V8.87308ZM18.9301 -2.11293H10.4793V2.95753H18.9301V-2.11293ZM8.85629 -1.52532L3.78583 2.70007L7.03186 6.59531L12.1023 2.36992L8.85629 -1.52532ZM5.40884 2.11246H3.71869V7.18292H5.40884V2.11246ZM3.71869 2.11246C0.442447 2.11246 -2.19685 4.75176 -2.19685 8.028H2.87361C2.87361 7.5521 3.24279 7.18292 3.71869 7.18292V2.11246ZM-2.19685 8.028V13.0985H2.87361V8.028H-2.19685ZM0.338379 15.6337H4.00602V10.5632H0.338379V15.6337ZM1.61938 13.9537C2.70431 16.9814 5.56356 19.014 8.78915 19.014V13.9435C7.72176 13.9435 6.76125 13.2719 6.39265 12.2433L1.61938 13.9537ZM8.78915 19.014C12.0113 19.014 14.882 16.9826 15.9483 13.936L11.1625 12.2609C10.8091 13.2707 9.86003 13.9435 8.78915 13.9435V19.014ZM13.5554 15.6337H24.2879V10.5632H13.5554V15.6337ZM21.9012 13.9537C22.9862 16.9814 25.8454 19.014 29.071 19.014V13.9435C28.0036 13.9435 27.0431 13.2719 26.6745 12.2433L21.9012 13.9537ZM29.071 19.014C32.2931 19.014 35.1638 16.9826 36.2301 13.936L31.4443 12.2609C31.0909 13.2707 30.1419 13.9435 29.071 13.9435V19.014ZM33.8372 15.6337H37.5218V10.5632H33.8372V15.6337ZM40.057 13.0985V11.4083H34.9866V13.0985H40.057ZM40.057 11.4083C40.057 9.4804 39.0759 8.18508 38.0043 7.35042C37.1486 6.68396 35.9032 6.10158 35.3571 5.80321L32.9259 10.2528C33.1577 10.3795 33.3865 10.4984 33.5905 10.6042C33.8021 10.7139 33.9834 10.8076 34.158 10.9017C34.5137 11.0935 34.7372 11.2328 34.8886 11.3507C35.0307 11.4614 35.0383 11.4997 35.0158 11.4599C34.9811 11.3982 34.9866 11.3563 34.9866 11.4083H40.057ZM35.2753 5.76042L20.0639 -1.84528L17.7963 2.68988L33.0077 10.2956L35.2753 5.76042ZM9.20585 8.2327L13.0087 4.85239L9.64007 1.06268L5.83722 4.44299L9.20585 8.2327ZM11.3244 5.49277H18.085V0.422302H11.3244V5.49277ZM16.9512 5.22511L23.7118 8.60542L25.9794 4.07026L19.2188 0.689954L16.9512 5.22511ZM24.8456 3.80261H7.52154V8.87308H24.8456V3.80261ZM8.78915 11.4083H8.78915L12.3745 7.82295C11.4236 6.87205 10.1339 6.33784 8.78915 6.33784V11.4083ZM8.78915 11.4083H13.8596C13.8596 10.0635 13.3254 8.77385 12.3745 7.82295L8.78915 11.4083ZM8.78915 11.4083V11.4083L12.3745 14.9937C13.3254 14.0428 13.8596 12.7531 13.8596 11.4083H8.78915ZM8.78915 11.4083L8.78915 11.4083V16.4788C10.1339 16.4788 11.4236 15.9446 12.3745 14.9937L8.78915 11.4083ZM8.78915 11.4083V11.4083L5.20379 14.9937C6.15469 15.9446 7.44438 16.4788 8.78915 16.4788V11.4083ZM8.78915 11.4083V11.4083H3.71869C3.71869 12.7531 4.2529 14.0428 5.20379 14.9937L8.78915 11.4083ZM8.78915 11.4083L5.20379 7.82295C4.2529 8.77385 3.71869 10.0635 3.71869 11.4083H8.78915ZM8.78915 11.4083V6.33784C7.44438 6.33784 6.15469 6.87205 5.20379 7.82295L8.78915 11.4083ZM29.071 11.4083H29.071L32.6564 7.82295C31.7055 6.87205 30.4158 6.33784 29.071 6.33784V11.4083ZM29.071 11.4083H29.071H34.1415C34.1415 10.0635 33.6073 8.77384 32.6564 7.82295L29.071 11.4083ZM29.071 11.4083L29.071 11.4083L32.6564 14.9937C33.6073 14.0428 34.1415 12.7531 34.1415 11.4083H29.071ZM29.071 11.4083L29.071 11.4083V16.4788C30.4158 16.4788 31.7055 15.9446 32.6564 14.9937L29.071 11.4083ZM29.071 11.4083V11.4083L25.4857 14.9937C26.4365 15.9446 27.7262 16.4788 29.071 16.4788V11.4083ZM29.071 11.4083V11.4083H24.0005C24.0005 12.7531 24.5348 14.0428 25.4857 14.9937L29.071 11.4083ZM29.071 11.4083L25.4857 7.82295C24.5348 8.77384 24.0005 10.0635 24.0005 11.4083H29.071ZM29.071 11.4083V6.33784C27.7262 6.33784 26.4366 6.87205 25.4857 7.82295L29.071 11.4083Z" fill="#001855" mask="url(#path-1-inside-1_1_2536)"/>
</svg>
