<svg width="27" height="27" viewBox="0 0 27 27" fill="none" xmlns="http://www.w3.org/2000/svg">
<path d="M11.9051 26.3123L0.673667 15.0809C0.503493 14.9107 0.382669 14.7263 0.311196 14.5278C0.240857 14.3293 0.205688 14.1166 0.205688 13.8897C0.205688 13.6628 0.240857 13.45 0.311196 13.2515C0.382669 13.053 0.503493 12.8686 0.673667 12.6984L11.9051 1.46696C12.2171 1.15497 12.6068 0.991608 13.0742 0.97686C13.5428 0.963246 13.9472 1.12661 14.2876 1.46696C14.6279 1.77895 14.8055 2.16864 14.8202 2.63605C14.8338 3.1046 14.6705 3.50905 14.3301 3.84939L5.9916 12.1879H25.0085C25.4907 12.1879 25.8951 12.3507 26.2219 12.6763C26.5475 13.003 26.7103 13.4075 26.7103 13.8897C26.7103 14.3718 26.5475 14.7757 26.2219 15.1013C25.8951 15.428 25.4907 15.5914 25.0085 15.5914H5.9916L14.3301 23.9299C14.6421 24.2419 14.8055 24.639 14.8202 25.1211C14.8338 25.6033 14.6705 26.0004 14.3301 26.3123C14.0181 26.6527 13.6211 26.8229 13.1389 26.8229C12.6567 26.8229 12.2455 26.6527 11.9051 26.3123Z" fill="#001855"/>
</svg>
