<svg width="46" height="46" viewBox="0 0 46 46" fill="none" xmlns="http://www.w3.org/2000/svg">
<path d="M42.3987 4.88346L31.2609 4.8835V2.11122C31.2609 1.34269 30.6384 0.720215 29.8699 0.720215C29.1013 0.720215 28.4789 1.34269 28.4789 2.11122V4.88281H17.3508V2.11122C17.3508 1.34269 16.7283 0.720215 15.9598 0.720215C15.1913 0.720215 14.5688 1.34269 14.5688 2.11122V4.88281H3.45047C1.9141 4.88281 0.668457 6.12845 0.668457 7.66482V42.44C0.668457 43.9763 1.9141 45.222 3.45047 45.222H42.3987C43.9351 45.222 45.1807 43.9763 45.1807 42.44V7.66482C45.1807 6.1291 43.9351 4.88346 42.3987 4.88346ZM42.3987 42.44H3.45047V7.66482H14.5688V9.06626C14.5688 9.83475 15.1913 10.4573 15.9598 10.4573C16.7283 10.4573 17.3508 9.83475 17.3508 9.06626V7.66552H28.4789V9.06696C28.4789 9.83549 29.1013 10.458 29.8699 10.458C30.6384 10.458 31.2609 9.83549 31.2609 9.06696V7.66552H42.3987V42.44ZM32.6616 22.9666H35.4436C36.2115 22.9666 36.8347 22.3434 36.8347 21.5755V18.7935C36.8347 18.0257 36.2115 17.4025 35.4436 17.4025H32.6616C31.8938 17.4025 31.2706 18.0257 31.2706 18.7935V21.5755C31.2706 22.3434 31.8938 22.9666 32.6616 22.9666ZM32.6616 34.0939H35.4436C36.2115 34.0939 36.8347 33.4714 36.8347 32.7029V29.9209C36.8347 29.1531 36.2115 28.5299 35.4436 28.5299H32.6616C31.8938 28.5299 31.2706 29.1531 31.2706 29.9209V32.7029C31.2706 33.4721 31.8938 34.0939 32.6616 34.0939ZM24.3156 28.5299H21.5336C20.7657 28.5299 20.1426 29.1531 20.1426 29.9209V32.7029C20.1426 33.4714 20.7657 34.0939 21.5336 34.0939H24.3156C25.0834 34.0939 25.7066 33.4714 25.7066 32.7029V29.9209C25.7066 29.1538 25.0834 28.5299 24.3156 28.5299ZM24.3156 17.4025H21.5336C20.7657 17.4025 20.1426 18.0257 20.1426 18.7935V21.5755C20.1426 22.3434 20.7657 22.9666 21.5336 22.9666H24.3156C25.0834 22.9666 25.7066 22.3434 25.7066 21.5755V18.7935C25.7066 18.025 25.0834 17.4025 24.3156 17.4025ZM13.1875 17.4025H10.4055C9.63767 17.4025 9.0145 18.0257 9.0145 18.7935V21.5755C9.0145 22.3434 9.63767 22.9666 10.4055 22.9666H13.1875C13.9554 22.9666 14.5785 22.3434 14.5785 21.5755V18.7935C14.5785 18.025 13.9554 17.4025 13.1875 17.4025ZM13.1875 28.5299H10.4055C9.63767 28.5299 9.0145 29.1531 9.0145 29.9209V32.7029C9.0145 33.4714 9.63767 34.0939 10.4055 34.0939H13.1875C13.9554 34.0939 14.5785 33.4714 14.5785 32.7029V29.9209C14.5785 29.1538 13.9554 28.5299 13.1875 28.5299Z" fill="#001855"/>
</svg>
