<svg width="19" height="12" viewBox="0 0 19 12" fill="none" xmlns="http://www.w3.org/2000/svg">
<path d="M18.2177 1.00323C18.0633 0.848508 17.8799 0.725755 17.678 0.642002C17.4761 0.558248 17.2596 0.515137 17.0411 0.515137C16.8225 0.515137 16.606 0.558248 16.4041 0.642002C16.2022 0.725755 16.0188 0.848508 15.8644 1.00323L9.3886 7.47903L2.9128 1.00323C2.60073 0.691163 2.17748 0.515843 1.73615 0.515843C1.29481 0.515843 0.871554 0.691163 0.559483 1.00323C0.247414 1.3153 0.0720984 1.73856 0.0720984 2.17989C0.0720984 2.62122 0.247414 3.04448 0.559483 3.35655L8.22029 11.0173C8.37469 11.1721 8.5581 11.2948 8.76001 11.3786C8.96191 11.4623 9.17836 11.5054 9.39694 11.5054C9.61553 11.5054 9.83198 11.4623 10.0339 11.3786C10.2358 11.2948 10.4192 11.1721 10.5736 11.0173L18.2344 3.35655C18.8686 2.72232 18.8686 1.65415 18.2177 1.00323Z" fill="#001855"/>
</svg>
