<svg width="28" height="27" viewBox="0 0 28 27" fill="none" xmlns="http://www.w3.org/2000/svg">
<path d="M13.996 0.551392C11.2725 0.551392 8.61011 1.32584 6.34558 2.77679C4.08104 4.22775 2.31605 6.29005 1.2738 8.70291C0.231552 11.1158 -0.0411478 13.7708 0.490187 16.3323C1.02152 18.8937 2.33303 21.2466 4.25885 23.0933C6.18468 24.94 8.63834 26.1977 11.3095 26.7072C13.9807 27.2167 16.7495 26.9552 19.2657 25.9558C21.7819 24.9563 23.9326 23.2638 25.4457 21.0923C26.9588 18.9208 27.7664 16.3678 27.7664 13.7562C27.7629 10.2551 26.311 6.89833 23.7293 4.42269C21.1476 1.94704 17.6471 0.554753 13.996 0.551392ZM13.996 24.9294C11.6915 24.9294 9.43871 24.2741 7.52257 23.0464C5.60642 21.8186 4.11297 20.0736 3.23107 18.032C2.34916 15.9903 2.11841 13.7438 2.56801 11.5764C3.0176 9.40896 4.12733 7.41807 5.75688 5.85546C7.38643 4.29286 9.46259 3.22871 11.7228 2.79758C13.9831 2.36646 16.3259 2.58773 18.455 3.43341C20.5841 4.27908 22.4039 5.71119 23.6842 7.54862C24.9645 9.38605 25.6479 11.5463 25.6479 13.7562C25.6444 16.7185 24.4157 19.5585 22.2313 21.6531C20.0469 23.7478 17.0852 24.926 13.996 24.9294ZM15.5849 20.3585C15.5849 20.6599 15.4917 20.9545 15.3171 21.205C15.1425 21.4556 14.8944 21.6509 14.6041 21.7662C14.3137 21.8815 13.9942 21.9117 13.686 21.8529C13.3778 21.7941 13.0947 21.649 12.8725 21.4359C12.6503 21.2228 12.499 20.9513 12.4376 20.6558C12.3763 20.3602 12.4078 20.0539 12.5281 19.7755C12.6483 19.4971 12.852 19.2591 13.1133 19.0917C13.3746 18.9243 13.6818 18.8349 13.996 18.8349C14.4174 18.8349 14.8216 18.9954 15.1195 19.2812C15.4175 19.5669 15.5849 19.9544 15.5849 20.3585ZM18.7627 11.2168C18.7627 12.2525 18.3959 13.2575 17.7223 14.0672C17.0487 14.8769 16.1084 15.4432 15.0553 15.6734V15.7877C15.0553 16.057 14.9437 16.3154 14.745 16.5059C14.5464 16.6964 14.2769 16.8034 13.996 16.8034C13.7151 16.8034 13.4456 16.6964 13.247 16.5059C13.0483 16.3154 12.9367 16.057 12.9367 15.7877V14.7719C12.9367 14.5025 13.0483 14.2441 13.247 14.0537C13.4456 13.8632 13.7151 13.7562 13.996 13.7562C14.5198 13.7562 15.0318 13.6072 15.4672 13.3282C15.9027 13.0492 16.2422 12.6526 16.4426 12.1886C16.643 11.7245 16.6955 11.214 16.5933 10.7214C16.4911 10.2288 16.2389 9.7763 15.8685 9.42116C15.4982 9.06602 15.0263 8.82417 14.5126 8.72619C13.9989 8.62821 13.4665 8.6785 12.9826 8.8707C12.4987 9.06289 12.0851 9.38837 11.7941 9.80597C11.5032 10.2236 11.3479 10.7145 11.3479 11.2168C11.3479 11.4862 11.2363 11.7445 11.0376 11.935C10.839 12.1255 10.5695 12.2325 10.2886 12.2325C10.0077 12.2325 9.73823 12.1255 9.53958 11.935C9.34093 11.7445 9.22933 11.4862 9.22933 11.2168C9.22933 10.0045 9.73153 8.84188 10.6255 7.98467C11.5194 7.12747 12.7318 6.6459 13.996 6.6459C15.2602 6.6459 16.4726 7.12747 17.3666 7.98467C18.2605 8.84188 18.7627 10.0045 18.7627 11.2168Z" fill="#6B6B6B"/>
</svg>
