<svg width="23" height="20" viewBox="0 0 23 20" fill="none" xmlns="http://www.w3.org/2000/svg">
<path d="M14.0376 14.3239V16.4157C14.0376 16.9705 13.8178 17.5026 13.4265 17.8948C13.0351 18.2871 12.5044 18.5075 11.951 18.5075H3.60466C3.05126 18.5075 2.52053 18.2871 2.12921 17.8948C1.7379 17.5026 1.51807 16.9705 1.51807 16.4157V3.86488C1.51807 3.3101 1.7379 2.77804 2.12921 2.38575C2.52053 1.99346 3.05126 1.77307 3.60466 1.77307H11.5337C12.686 1.77307 14.0376 2.70968 14.0376 3.86488V5.95668M17.3762 14.3239L21.5493 10.1403L17.3762 5.95668M7.36052 10.1403H20.7147" stroke="#001855" stroke-width="2.87187" stroke-linecap="round" stroke-linejoin="round"/>
</svg>
