<svg width="42" height="42" viewBox="0 0 42 42" fill="none" xmlns="http://www.w3.org/2000/svg">
<path d="M21.037 39.8337C21.7657 39.8169 22.4649 39.543 23.0111 39.0603C23.5573 38.5777 23.9151 37.9174 24.0214 37.1964H17.937C18.0463 37.937 18.4209 38.6128 18.9911 39.0979C19.5614 39.583 20.2884 39.8445 21.037 39.8337Z" fill="#001855"/>
<path d="M37.4709 35.2382V33.0554L37.3292 32.9304L37.3265 32.9281C36.1609 31.8895 35.1406 30.6985 34.2933 29.3872L34.2729 29.3557L34.2558 29.3222C33.3249 27.5019 32.767 25.514 32.6147 23.4752L32.6127 23.4475V23.4198V17.7081C32.6092 17.2183 32.5756 16.7292 32.5118 16.2438C30.5899 15.7361 28.8729 14.6316 27.6124 13.0828C26.2418 11.3987 25.4951 9.29269 25.4988 7.12131V7.12156L37.4709 35.2382ZM37.4709 35.2382H4.48775V33.0554L4.62941 32.9304L4.62946 32.9305L4.63714 32.9235C5.78532 31.8816 6.78909 30.6909 7.6218 29.383L7.64063 29.3534L7.6566 29.3222C8.58747 27.5019 9.14541 25.514 9.29766 23.4752L9.29972 23.4475V23.4198L9.29972 17.7056L9.29972 17.7038C9.29289 14.8644 10.3135 12.1185 12.1732 9.97286C14.0329 7.82725 16.606 6.42687 19.4175 6.03026L20.0573 5.94001V5.29394V3.77863C20.0573 3.5663 20.1416 3.36266 20.2917 3.21251C20.4419 3.06236 20.6455 2.97801 20.8579 2.97801C21.0702 2.97801 21.2738 3.06236 21.424 3.21251C21.5741 3.36265 21.6585 3.56629 21.6585 3.77863V5.2361V5.89027L22.3073 5.97365C23.4095 6.11528 24.4845 6.41603 25.4988 6.86586M37.4709 35.2382L25.4988 6.86586M25.4988 6.86586L25.4988 7.12022L25.9141 7.06002C25.7769 6.99249 25.6384 6.92776 25.4988 6.86586Z" stroke="#001855" stroke-width="1.48722"/>
</svg>
