<svg width="25" height="20" viewBox="0 0 25 20" fill="none" xmlns="http://www.w3.org/2000/svg">
<path d="M17.9533 14.5441C17.7025 14.5441 17.4649 14.6508 17.2918 14.8359C17.1191 15.0205 17.0242 15.2683 17.0242 15.5241C17.0242 15.7799 17.1191 16.0277 17.2918 16.2123C17.4649 16.3974 17.7025 16.5041 17.9533 16.5041H20.8874C21.1382 16.5041 21.3758 16.3974 21.5489 16.2123C21.7216 16.0277 21.8165 15.7799 21.8165 15.5241C21.8165 15.2683 21.7216 15.0205 21.5489 14.8359C21.3758 14.6508 21.1382 14.5441 20.8874 14.5441H17.9533ZM2.12139 1.7511C1.32972 2.59766 0.887039 3.74321 0.887039 4.93516V15.1319C0.887039 16.3239 1.32972 17.4694 2.12139 18.316C2.91349 19.163 3.99071 19.6415 5.11694 19.6415H20.5206C21.6468 19.6415 22.7241 19.163 23.5162 18.316C24.3078 17.4694 24.7505 16.3239 24.7505 15.1319V4.93516C24.7505 3.74321 24.3078 2.59766 23.5162 1.7511C22.7241 0.904085 21.6468 0.425553 20.5206 0.425553H5.11694C3.99071 0.425553 2.91349 0.904085 2.12139 1.7511ZM3.44446 3.12756C3.89041 2.6507 4.49232 2.38549 5.11694 2.38549H20.5206C21.1452 2.38549 21.7471 2.6507 22.1931 3.12756C22.6395 3.60487 22.8923 4.25487 22.8923 4.93516V6.70047H2.74526V4.93516C2.74526 4.25487 2.9981 3.60487 3.44446 3.12756ZM2.74526 8.66041H22.8923V15.1319C22.8923 15.8122 22.6395 16.4622 22.1931 16.9395C21.7471 17.4164 21.1452 17.6816 20.5206 17.6816H5.11694C3.81997 17.6816 2.74526 16.5518 2.74526 15.1319V8.66041Z" fill="#001855" stroke="#001855" stroke-width="0.391205"/>
</svg>
