<svg width="11" height="16" viewBox="0 0 11 16" fill="none" xmlns="http://www.w3.org/2000/svg">
<path d="M10.805 7.75674C10.8082 8.05774 10.6817 8.35201 10.4432 8.59883L4.77413 14.4063C4.46669 14.7194 4.00016 14.9317 3.47654 14.997C2.95292 15.0623 2.4148 14.9752 1.97983 14.7548C1.76241 14.6448 1.57732 14.5047 1.43525 14.3427C1.29318 14.1808 1.19694 14.0001 1.15208 13.8111C1.10722 13.6221 1.11464 13.4286 1.1739 13.2417C1.23316 13.0548 1.3431 12.8782 1.49736 12.7222L6.30196 7.75674L1.15561 2.82035C0.835708 2.5123 0.698352 2.12509 0.773753 1.7439C0.849153 1.3627 1.13113 1.01876 1.55766 0.787722C1.98419 0.556684 2.52034 0.457479 3.04814 0.511936C3.57594 0.566392 4.05218 0.770045 4.37208 1.07809L10.403 6.88561C10.6639 7.13693 10.805 7.4426 10.805 7.75674Z" fill="#001855"/>
</svg>
