<svg width="11" height="15" viewBox="0 0 11 15" fill="none" xmlns="http://www.w3.org/2000/svg">
<path d="M10.805 7.73831C10.8082 8.03931 10.6817 8.33358 10.4432 8.58039L4.77413 14.3879C4.46669 14.7009 4.00016 14.9133 3.47654 14.9786C2.95292 15.0439 2.4148 14.9568 1.97983 14.7364C1.76241 14.6263 1.57732 14.4863 1.43525 14.3243C1.29318 14.1623 1.19694 13.9816 1.15208 13.7927C1.10722 13.6037 1.11464 13.4102 1.1739 13.2233C1.23316 13.0364 1.3431 12.8598 1.49736 12.7037L6.30196 7.73831L1.15561 2.80192C0.835708 2.49387 0.698352 2.10666 0.773753 1.72546C0.849153 1.34427 1.13113 1.00033 1.55766 0.769289C1.98419 0.538252 2.52034 0.439047 3.04814 0.493504C3.57594 0.547959 4.05218 0.751613 4.37208 1.05966L10.403 6.86718C10.6639 7.11849 10.805 7.42416 10.805 7.73831Z" fill="#6B6B6B"/>
</svg>
