<svg width="25" height="25" viewBox="0 0 25 25" fill="none" xmlns="http://www.w3.org/2000/svg">
<path d="M16.5284 17.6147L16.6669 17.7536L16.8054 17.6147L17.9874 16.4298L18.125 16.2918L17.9875 16.1536L13.853 12.0005V4.87073V4.67513H13.6574H11.9808H11.7852V4.87073V12.7788V12.8597L11.8424 12.9169L16.5284 17.6147Z" fill="#001855" stroke="#001855" stroke-width="0.391205"/>
<path d="M12.8191 0.473221H12.8191C11.2294 0.473447 9.65594 0.793467 8.19187 1.41432C6.87314 1.97353 5.66734 2.76657 4.63179 3.75406V0.668823V0.473221H4.43619H2.7596H2.564V0.668823V7.39195V7.58755H2.7596H9.46596H9.66156V7.39195V5.71117V5.51557H9.46596H5.7936C7.30123 3.98184 9.27057 2.98029 11.4042 2.67025C13.6855 2.33873 16.0107 2.81873 17.9758 4.02695C19.941 5.23518 21.422 7.09535 22.1617 9.28448C22.9013 11.4736 22.8527 13.8533 22.0243 16.0103C21.196 18.1672 19.6402 19.9651 17.6274 21.0917C15.6146 22.2182 13.2718 22.6025 11.0059 22.1776C8.73998 21.7528 6.69396 20.5457 5.22323 18.766C3.7525 16.9862 2.95 14.7461 2.9552 12.4347L2.95564 12.2387H2.7596H1.08301H0.887406V12.4343C0.887406 14.7999 1.58713 17.1124 2.89814 19.0793C4.20916 21.0463 6.07261 22.5795 8.2529 23.4848C10.4332 24.3902 12.8324 24.6271 15.147 24.1655C17.4616 23.704 19.5877 22.5647 21.2563 20.8919C22.925 19.2191 24.0613 17.0878 24.5216 14.7677C24.982 12.4476 24.7457 10.0427 23.8427 7.85715C22.9397 5.67161 21.4104 3.80351 19.4482 2.48915C17.4861 1.17479 15.1791 0.473221 12.8191 0.473221Z" fill="#001855" stroke="#001855" stroke-width="0.391205"/>
</svg>
