<svg width="25" height="26" viewBox="0 0 25 26" fill="none" xmlns="http://www.w3.org/2000/svg">
<path d="M21.7416 19.9012C21.1532 19.3267 20.5805 18.7357 20.0241 18.1289C19.5568 17.6448 19.2753 17.2926 19.2753 17.2926L15.7575 15.5805C17.1659 13.9523 17.9432 11.8565 17.9436 9.68584C17.9436 4.74399 13.9986 0.721619 9.14905 0.721619C4.29948 0.721619 0.354492 4.74399 0.354492 9.68584C0.354492 14.6277 4.29948 18.6501 9.14905 18.6501C11.364 18.6501 13.383 17.8049 14.9321 16.4231L16.6119 20.0088C16.6119 20.0088 16.9574 20.2956 17.4323 20.772C17.9185 21.2369 18.558 21.8657 19.1711 22.5226L20.8772 24.3052L21.6361 25.1325L24.3008 22.4163L23.4892 21.6428C23.013 21.1665 22.3773 20.5338 21.7416 19.9012ZM9.14905 16.0889C5.68525 16.0889 2.86722 13.2165 2.86722 9.68584C2.86722 6.15522 5.68525 3.28283 9.14905 3.28283C12.6128 3.28283 15.4309 6.15522 15.4309 9.68584C15.4309 13.2165 12.6128 16.0889 9.14905 16.0889Z" fill="#4F4F4F"/>
</svg>
