<svg width="24" height="25" viewBox="0 0 24 25" fill="none" xmlns="http://www.w3.org/2000/svg">
<path d="M17.92 7.26769C18.3692 7.44242 18.8397 7.52979 19.3316 7.52979C20.401 7.52979 21.31 7.17088 22.0586 6.45306C22.8071 5.73524 23.1814 4.8636 23.1814 3.83814C23.1814 2.81268 22.8071 1.94104 22.0586 1.22322C21.31 0.505395 20.401 0.146484 19.3316 0.146484C18.2622 0.146484 17.3533 0.505395 16.6047 1.22322C15.8561 1.94104 15.4818 2.81268 15.4818 3.83814C15.4818 3.9817 15.4925 4.1306 15.5139 4.28483M17.92 7.26769L6.56313 15.1592C6.19954 15.4669 5.79317 15.7076 5.34403 15.8815C4.89489 16.0563 4.42436 16.1437 3.93244 16.1437C2.86305 16.1437 1.95407 15.7847 1.2055 15.0669C0.456927 14.3491 0.0826416 13.4775 0.0826416 12.452C0.0826416 11.4265 0.456927 10.5549 1.2055 9.83708C1.95407 9.11926 2.86305 8.76034 3.93244 8.76034C4.42436 8.76034 4.89489 8.8473 5.34403 9.02122M17.92 7.26769C17.4709 7.09377 17.0645 6.85299 16.7009 6.54535L17.92 7.26769ZM15.5139 4.28483C15.5353 4.43824 15.5674 4.57647 15.6102 4.69952L6.56313 9.74479C6.19954 9.43715 5.79317 9.19596 5.34403 9.02122M15.5139 4.28483L16.3938 4.16216C16.3938 4.16237 16.3939 4.16258 16.3939 4.16279M15.5139 4.28483L16.3939 4.16279M5.34403 9.02122L5.02191 9.84918C5.02221 9.8493 5.02251 9.84941 5.02281 9.84953M5.34403 9.02122L5.02323 9.84969C5.02309 9.84964 5.02295 9.84959 5.02281 9.84953M5.02281 9.84953C4.67831 9.71619 4.31687 9.64876 3.93244 9.64876C3.0843 9.64876 2.39792 9.92451 1.82039 10.4783C1.2443 11.0307 0.971056 11.6717 0.971056 12.452C0.971056 13.2323 1.2443 13.8733 1.82039 14.4257C2.39792 14.9795 3.0843 15.2552 3.93244 15.2552C4.31649 15.2552 4.67761 15.1875 5.02191 15.0536L5.02323 15.0531C5.38131 14.9144 5.70196 14.7241 5.98928 14.481L6.45875 14.0838L6.99584 14.3833L16.0429 19.4286L16.6942 19.7918L16.4493 20.4962C16.4288 20.5552 16.4086 20.6355 16.3938 20.7418M5.02281 9.84953C5.38108 9.98903 5.70188 10.1798 5.98928 10.423L6.45875 10.8202L6.99584 10.5207L16.0429 5.47544L16.6942 5.11222L16.4493 4.40782C16.4288 4.34889 16.4087 4.26878 16.3939 4.16279M16.3938 20.7418L6.87016 12.1273C6.85535 12.0214 6.83523 11.9413 6.81475 11.8823L6.56989 11.1779L7.2212 10.8147L16.2682 5.76944L16.8053 5.46992L17.2748 5.86713C17.5621 6.11024 17.8827 6.30056 18.2408 6.43921L18.2421 6.43972C18.5864 6.57367 18.9476 6.64138 19.3316 6.64138C20.1798 6.64138 20.8661 6.36563 21.4437 5.81182C22.0198 5.2594 22.293 4.61842 22.293 3.83814C22.293 3.05786 22.0198 2.41688 21.4437 1.86445C20.8661 1.31065 20.1798 1.0349 19.3316 1.0349C18.4835 1.0349 17.7971 1.31065 17.2196 1.86445C16.6435 2.41688 16.3702 3.05786 16.3702 3.83814C16.3702 3.93762 16.3777 4.04564 16.3939 4.16279M16.3938 20.7418C16.3776 20.8587 16.3702 20.9666 16.3702 21.0659C16.3702 21.8461 16.6435 22.4871 17.2196 23.0395C17.7971 23.5934 18.4835 23.8691 19.3316 23.8691C20.1798 23.8691 20.8661 23.5934 21.4437 23.0395C22.0198 22.4871 22.293 21.8461 22.293 21.0659C22.293 20.2856 22.0198 19.6446 21.4437 19.0922C20.8661 18.5384 20.1798 18.2626 19.3316 18.2626C18.9471 18.2626 18.5856 18.3301 18.241 18.4635C17.8828 18.603 17.5621 18.7937 17.2748 19.0369L16.8053 19.4341L16.2682 19.1346L7.2212 14.0893L6.56989 13.7261L6.81475 13.0217C6.8351 12.9631 6.85528 12.8827 6.87016 12.7754L6.87025 12.7748C6.88641 12.6589 6.89382 12.5515 6.89382 12.452C6.89382 12.3526 6.88641 12.2446 6.87018 12.1275L16.3938 20.7418ZM15.4818 21.0659C15.4818 20.9223 15.4925 20.7734 15.5139 20.6192L16.7009 18.3586C17.0645 18.051 17.4709 17.8098 17.92 17.6351C18.3692 17.4612 18.8397 17.3742 19.3316 17.3742C20.401 17.3742 21.31 17.7331 22.0586 18.4509C22.8071 19.1688 23.1814 20.0404 23.1814 21.0659C23.1814 22.0913 22.8071 22.963 22.0586 23.6808C21.31 24.3986 20.401 24.7575 19.3316 24.7575C18.2622 24.7575 17.3533 24.3986 16.6047 23.6808C15.8561 22.963 15.4818 22.0913 15.4818 21.0659Z" fill="#6B6B6B" stroke="#6B6B6B" stroke-width="1.77683"/>
</svg>
